<svg width="1754" height="399" viewBox="0 0 1754 399" fill="none" xmlns="http://www.w3.org/2000/svg">
<path d="M110.646 282.839C110.646 286.705 107.512 289.839 103.646 289.839H101.78C97.914 289.839 94.78 286.705 94.78 282.839C94.78 278.973 97.914 275.839 101.78 275.839H103.646C107.512 275.839 110.646 278.973 110.646 282.839ZM67.648 218.445H65.783C61.917 218.445 58.783 221.579 58.783 225.445C58.783 229.311 61.917 232.445 65.783 232.445H67.648C71.514 232.445 74.648 229.311 74.648 225.445C74.648 221.579 71.515 218.445 67.648 218.445ZM135.299 161.951H133.432C129.566 161.951 126.432 165.085 126.432 168.951C126.432 172.817 129.566 175.951 133.432 175.951H135.299C139.165 175.951 142.299 172.817 142.299 168.951C142.299 165.084 139.165 161.951 135.299 161.951ZM178.345 70.274H176.481C172.615 70.274 169.481 73.408 169.481 77.274C169.481 81.14 172.615 84.274 176.481 84.274H178.345C182.211 84.274 185.345 81.14 185.345 77.274C185.345 73.409 182.211 70.274 178.345 70.274ZM265.215 148.492C265.215 136.127 275.277 126.067 287.643 126.067C300.008 126.067 310.068 136.127 310.068 148.492C310.068 160.858 300.008 170.918 287.643 170.918C275.276 170.917 265.215 160.857 265.215 148.492ZM279.215 148.492C279.215 153.138 282.995 156.918 287.643 156.918C292.289 156.918 296.068 153.138 296.068 148.492C296.068 143.846 292.289 140.067 287.643 140.067C282.995 140.066 279.215 143.846 279.215 148.492ZM128.421 129.241C128.421 141.607 118.36 151.667 105.994 151.667C93.628 151.667 83.567 141.607 83.567 129.241C83.567 116.875 93.628 106.815 105.994 106.815C118.36 106.815 128.421 116.875 128.421 129.241ZM114.421 129.241C114.421 124.595 110.641 120.815 105.994 120.815C101.347 120.815 97.567 124.595 97.567 129.241C97.567 133.887 101.347 137.667 105.994 137.667C110.641 137.667 114.421 133.887 114.421 129.241ZM75.207 161.951H73.341C69.475 161.951 66.341 165.085 66.341 168.951C66.341 172.817 69.475 175.951 73.341 175.951H75.207C79.073 175.951 82.207 172.817 82.207 168.951C82.207 165.084 79.073 161.951 75.207 161.951ZM212.961 84.274H214.827C218.693 84.274 221.827 81.14 221.827 77.274C221.827 73.408 218.693 70.274 214.827 70.274H212.961C209.095 70.274 205.961 73.408 205.961 77.274C205.961 81.141 209.095 84.274 212.961 84.274ZM362.357 275.713C363.383 276.242 364.48 276.493 365.56 276.493C368.096 276.493 370.543 275.11 371.787 272.701L372.642 271.043C374.414 267.607 373.067 263.385 369.63 261.612C366.194 259.839 361.973 261.189 360.2 264.624L359.345 266.282C357.573 269.718 358.921 273.94 362.357 275.713ZM296.04 355.534C297.895 358.749 296.912 362.824 293.867 364.854C293.65 365.015 293.423 365.164 293.183 365.302C263.648 382.316 229.922 391.308 195.652 391.308C160.312 391.308 127.127 381.887 98.481 365.429C98.259 365.33 98.041 365.219 97.826 365.095C97.604 364.967 97.391 364.828 97.189 364.68C39.101 330.713 0 267.666 0 195.657C0 123.646 39.1 60.6 97.188 26.632C97.391 26.484 97.604 26.345 97.827 26.216C98.043 26.092 98.262 25.98 98.483 25.882C127.129 9.42403 160.313 0.00402832 195.653 0.00402832C230.993 0.00402832 264.177 9.42303 292.822 25.881C293.045 25.98 293.263 26.091 293.478 26.216C293.701 26.344 293.913 26.483 294.116 26.631C352.205 60.599 391.306 123.646 391.306 195.655V195.656C391.306 199.522 388.172 202.656 384.306 202.656H225.305C225.256 202.656 225.207 202.656 225.159 202.655H207.751L216.062 217.112C216.235 217.341 216.395 217.583 216.542 217.838L296.04 355.534ZM280.067 356.543L189.584 199.144C188.339 196.978 188.342 194.312 189.594 192.149C190.845 189.986 193.155 188.655 195.653 188.655H348.513C346.6 146.766 327.581 107.427 295.671 79.843C292.746 77.315 292.425 72.894 294.953 69.969C297.482 67.043 301.9 66.721 304.827 69.251C339.817 99.498 360.604 142.692 362.526 188.654H377.172C374.824 126.952 341.552 73.04 292.448 41.996L216.541 173.474C214.608 176.822 210.327 177.97 206.978 176.036C203.63 174.103 202.483 169.822 204.415 166.474L266.033 59.745C244.398 48.533 220.207 42.634 195.65 42.634C177.444 42.634 159.63 45.799 142.704 52.041C139.073 53.379 135.052 51.522 133.715 47.895C132.377 44.268 134.234 40.243 137.861 38.905C156.343 32.09 175.787 28.634 195.651 28.634C222.664 28.634 249.275 35.176 273.041 47.609L280.335 34.975C255.035 21.587 226.213 14.001 195.651 14.001C165.089 14.001 136.266 21.587 110.966 34.976L186.885 166.475C188.818 169.823 187.67 174.104 184.322 176.037C180.972 177.971 176.692 176.823 174.759 173.475L113.148 66.756C76.259 90.367 51.392 128.187 44.527 171.506C43.922 175.324 40.333 177.933 36.517 177.324C32.699 176.719 30.094 173.133 30.699 169.315C38.228 121.807 65.582 80.362 106.141 54.62L98.854 41.998C49.751 73.042 16.48 126.955 14.133 188.657H166.001C169.867 188.657 173.001 191.791 173.001 195.657C173.001 199.523 169.867 202.657 166.001 202.657H42.792C44.726 245.172 64.211 284.914 96.923 312.568C99.875 315.064 100.245 319.481 97.749 322.433C95.254 325.385 90.837 325.757 87.884 323.26C52.018 292.939 30.72 249.304 28.779 202.657H14.133C16.481 264.359 49.751 318.27 98.855 349.314L174.762 217.836C176.697 214.488 180.977 213.341 184.325 215.274C187.673 217.207 188.82 221.488 186.888 224.836L125.27 331.564C146.905 342.778 171.098 348.677 195.654 348.677C213.877 348.677 231.703 345.508 248.637 339.257C252.265 337.919 256.289 339.774 257.628 343.4C258.966 347.026 257.111 351.052 253.484 352.391C234.993 359.217 215.536 362.678 195.653 362.678C168.641 362.678 142.028 356.135 118.262 343.7L110.968 356.335C136.268 369.723 165.091 377.31 195.653 377.31C225.125 377.309 254.161 370.147 280.067 356.543ZM345.613 308.125C346.64 308.656 347.738 308.907 348.819 308.907C351.354 308.907 353.8 307.526 355.045 305.118L355.901 303.46C357.674 300.025 356.329 295.802 352.893 294.028C349.456 292.252 345.237 293.601 343.461 297.035L342.605 298.693C340.832 302.128 342.178 306.351 345.613 308.125ZM319.987 274.362C321.014 274.893 322.112 275.144 323.194 275.144C325.729 275.144 328.175 273.763 329.419 271.355L330.275 269.697C332.049 266.262 330.704 262.04 327.269 260.265C323.837 258.491 319.612 259.837 317.837 263.271L316.981 264.929C315.207 268.365 316.553 272.588 319.987 274.362ZM448.898 228.32C448.898 263.337 439.536 297.696 421.823 327.685C404.631 356.791 380.062 381.095 350.775 397.967C349.703 398.585 347.573 399.265 345.46 398.66C343.674 398.149 342.139 397 341.213 395.39L247.18 231.809C245.935 229.642 245.938 226.977 247.19 224.814C248.441 222.651 250.751 221.32 253.249 221.32H441.899C445.765 221.32 448.898 224.454 448.898 228.32ZM434.763 235.32H265.346L335.508 357.374C371.435 334.458 396.168 297.832 403.793 255.868C404.484 252.065 408.116 249.539 411.933 250.232C415.737 250.923 418.259 254.567 417.568 258.371C409.205 304.397 381.995 344.539 342.493 369.523L349.791 382.22C400.485 350.336 432.438 295.095 434.763 235.32ZM220.884 314.619H222.75C226.616 314.619 229.75 311.485 229.75 307.619C229.75 303.753 226.616 300.619 222.75 300.619H220.884C217.018 300.619 213.884 303.753 213.884 307.619C213.884 311.485 217.018 314.619 220.884 314.619ZM199.384 310.786C199.384 323.152 189.323 333.212 176.957 333.212C164.593 333.212 154.533 323.152 154.533 310.786C154.533 298.42 164.593 288.36 176.957 288.36C189.323 288.359 199.384 298.42 199.384 310.786ZM185.384 310.786C185.384 306.14 181.604 302.36 176.957 302.36C172.312 302.36 168.533 306.14 168.533 310.786C168.533 315.432 172.312 319.212 176.957 319.212C181.604 319.211 185.384 315.432 185.384 310.786ZM186.537 254.413C186.537 258.279 189.671 261.413 193.537 261.413H195.402C199.268 261.413 202.402 258.279 202.402 254.413C202.402 250.547 199.268 247.413 195.402 247.413H193.537C189.671 247.413 186.537 250.547 186.537 254.413ZM194.721 122.535H196.588C200.454 122.535 203.588 119.401 203.588 115.535C203.588 111.669 200.454 108.535 196.588 108.535H194.721C190.855 108.535 187.721 111.669 187.721 115.535C187.721 119.401 190.854 122.535 194.721 122.535ZM139.072 237.14C139.072 249.506 129.011 259.566 116.645 259.566C104.28 259.566 94.22 249.506 94.22 237.14C94.22 224.774 104.28 214.714 116.645 214.714C129.012 214.714 139.072 224.774 139.072 237.14ZM125.072 237.14C125.072 232.494 121.292 228.714 116.645 228.714C111.999 228.714 108.22 232.494 108.22 237.14C108.22 241.786 111.999 245.566 116.645 245.566C121.292 245.565 125.072 241.786 125.072 237.14Z" fill="#D1411E"/>
<path d="M513.75 98.75L546.5 99.25H575.25C596.583 99.25 612.583 103.417 623.25 111.75C633.917 119.917 639.25 130 639.25 142C639.25 150.833 635.833 158.75 629 165.75C622.167 172.583 613.583 177 603.25 179V180C618.25 182.667 630.083 188 638.75 196C647.417 204 651.75 213.083 651.75 223.25C651.75 235.417 645.333 245.75 632.5 254.25C619.667 262.75 602.333 267 580.5 267H556.25L513.75 267.5C512.417 267.5 511.75 266.083 511.75 263.25C511.75 260.417 512.417 259 513.75 259H524.5C528.667 259 531.417 258.25 532.75 256.75C534.083 255.083 534.75 252 534.75 247.5V129.25C534.75 114.583 533 107.25 529.5 107.25H513.75C512.417 107.25 511.75 105.833 511.75 103C511.75 100.167 512.417 98.75 513.75 98.75ZM560.5 235C560.5 249.667 562.333 257 566 257H578.75C592.583 257 603.167 253.917 610.5 247.75C617.833 241.583 621.5 233.417 621.5 223.25C621.5 212.25 617.667 203.5 610 197C601.333 189.5 584.833 185.25 560.5 184.25V235ZM560.5 120.75V174.25C564.5 174.917 568.917 175.25 573.75 175.25C585.917 175.25 595.333 172.25 602 166.25C608.833 160.083 612.25 152.417 612.25 143.25C612.25 134.083 608.583 126.167 601.25 119.5C593.917 112.667 582.75 109.25 567.75 109.25C562.917 109.25 560.5 113.083 560.5 120.75ZM688.016 158L709.016 157.25C710.682 157.25 711.516 157.917 711.516 159.25C711.516 160.083 711.266 161.5 710.766 163.5C709.932 166.5 709.516 173.333 709.516 184V211.25C709.516 228.25 711.516 240.083 715.516 246.75C719.682 253.25 727.349 256.5 738.516 256.5C743.516 256.5 748.182 255.167 752.516 252.5C756.849 249.667 760.266 245.917 762.766 241.25V187.25C762.766 172.583 761.016 165.25 757.516 165.25H745.266C743.932 165.083 743.266 163.833 743.266 161.5C743.266 159 743.766 157.75 744.766 157.75L762.516 158L783.516 157.25C785.182 157.25 786.016 157.917 786.016 159.25C786.016 160.083 785.766 161.5 785.266 163.5C784.432 166.5 784.016 173.333 784.016 184V230.5C784.016 241.833 785.182 248.5 787.516 250.5C788.849 251.5 790.599 252 792.766 252L801.266 251.25C802.599 251.25 803.266 252.5 803.266 255C803.266 257.333 802.766 258.583 801.766 258.75C790.599 260.583 781.349 263.667 774.016 268C771.682 269.5 770.182 270.25 769.516 270.25C765.516 270.25 763.516 264.167 763.516 252H763.016C758.516 258 752.932 262.583 746.266 265.75C739.599 268.75 733.266 270.25 727.266 270.25C701.266 270.25 688.266 254.25 688.266 222.25V187.25C688.266 172.583 686.516 165.25 683.016 165.25H670.766C669.432 165.083 668.766 163.833 668.766 161.5C668.766 159 669.266 157.75 670.266 157.75L688.016 158ZM874.623 249C880.956 249 886.456 248.333 891.123 247C895.79 245.667 899.206 244.167 901.373 242.5L906.873 238C908.54 236.667 909.79 236 910.623 236C912.456 236 913.373 237 913.373 239C913.373 242.667 910.123 248.333 903.623 256C900.456 259.833 895.706 263.167 889.373 266C883.04 268.833 875.956 270.25 868.123 270.25C853.456 270.25 841.123 264.75 831.123 253.75C821.123 242.75 816.123 230.083 816.123 215.75C816.123 197.75 822.04 183.083 833.873 171.75C845.706 160.417 858.79 154.75 873.123 154.75C883.956 154.75 893.04 158.667 900.373 166.5C907.873 174.167 911.623 184.333 911.623 197C911.623 199.667 911.04 201.583 909.873 202.75C908.706 203.75 906.04 204.417 901.873 204.75C897.706 204.917 887.54 205.083 871.373 205.25C855.206 205.417 841.29 205.833 829.623 206.5C829.623 220.667 834.206 231.333 843.373 238.5C852.706 245.5 863.123 249 874.623 249ZM890.373 189.25C890.373 183.583 888.04 178.667 883.373 174.5C878.706 170.333 872.623 168.25 865.123 168.25C857.79 168.25 850.623 171 843.623 176.5C836.623 181.833 832.206 189.25 830.373 198.75C834.706 198.25 843.456 197.5 856.623 196.5C869.79 195.333 878.706 194.5 883.373 194C888.04 193.333 890.373 191.75 890.373 189.25ZM971.078 150.5L970.578 170H971.078C976.078 165.333 981.911 161.583 988.578 158.75C995.245 155.917 1001.33 154.5 1006.83 154.5C1034.49 154.5 1048.33 170.5 1048.33 202.5V237.5C1048.33 252.167 1050.08 259.5 1053.58 259.5H1065.83C1067.16 259.5 1067.83 260.75 1067.83 263.25C1067.83 265.75 1067.33 267 1066.33 267C1066.33 267 1057.24 266.917 1039.08 266.75L1010.08 267.5C1008.91 267.5 1008.33 266.25 1008.33 263.75C1008.33 261.25 1008.74 260 1009.58 260H1024.08C1026.08 260 1027.08 258.583 1027.08 255.75V213.5C1027.08 196.5 1024.74 184.75 1020.08 178.25C1015.58 171.583 1007.83 168.25 996.828 168.25C985.828 168.25 977.328 171.583 971.328 178.25V237.5C971.328 252.167 973.078 259.5 976.578 259.5H988.828C990.161 259.5 990.828 260.75 990.828 263.25C990.828 265.75 990.328 267 989.328 267L962.078 266.75L933.078 267.5C931.911 267.5 931.328 266.25 931.328 263.75C931.328 261.25 931.745 260 932.578 260H947.078C949.078 260 950.078 258.583 950.078 255.75V197C950.078 180.833 947.745 172.75 943.078 172.75H938.078C936.745 172.75 936.078 171.5 936.078 169C936.078 166.5 936.578 165.25 937.578 165.25C942.078 165.25 946.578 163.833 951.078 161C955.578 158 959.245 155 962.078 152C965.078 149 966.911 147.5 967.578 147.5C969.911 147.5 971.078 148.5 971.078 150.5ZM1166.48 186C1166.48 186 1165.65 202.75 1163.98 236.25C1163.98 247.417 1167.65 253 1174.98 253C1177.98 253 1180.48 252.167 1182.48 250.5C1184.65 248.667 1185.9 247.75 1186.23 247.75C1187.9 247.75 1188.73 248.583 1188.73 250.25C1188.73 254.583 1186.23 258.917 1181.23 263.25C1176.4 267.583 1170.98 269.75 1164.98 269.75C1158.98 269.75 1154.4 267.333 1151.23 262.5C1148.23 257.5 1146.73 251.417 1146.73 244.25C1146.73 243.583 1146.73 242.833 1146.73 242H1145.98C1142.98 250.167 1137.9 256.917 1130.73 262.25C1123.56 267.583 1115.98 270.25 1107.98 270.25C1100.15 270.25 1094.15 268.667 1089.98 265.5C1085.98 262.167 1083.98 257.5 1083.98 251.5C1083.98 242 1089.4 233.083 1100.23 224.75C1111.06 216.417 1126.15 209.417 1145.48 203.75C1145.81 198.083 1145.98 194.75 1145.98 193.75C1145.98 184.75 1144.23 177.333 1140.73 171.5C1137.4 165.667 1132.31 162.75 1125.48 162.75C1118.65 162.75 1113.06 164.75 1108.73 168.75C1104.56 172.583 1102.48 178.167 1102.48 185.5C1102.48 187.833 1102.56 189.667 1102.73 191C1101.56 192.667 1099.31 193.5 1095.98 193.5C1092.65 193.5 1089.73 192.5 1087.23 190.5C1084.73 188.5 1083.48 185.583 1083.48 181.75C1083.48 174.25 1088.23 167.833 1097.73 162.5C1107.23 157.167 1117.23 154.5 1127.73 154.5C1153.56 154.5 1166.48 165 1166.48 186ZM1118.23 256.5C1125.06 256.5 1131.15 252.417 1136.48 244.25C1141.81 236.083 1144.81 225 1145.48 211C1131.31 216.167 1121.4 221.5 1115.73 227C1110.06 232.5 1107.23 238.417 1107.23 244.75C1107.23 252.583 1110.9 256.5 1118.23 256.5Z" fill="#D1411E"/>
<path d="M1235.41 150.5L1234.66 174.5H1235.16C1245.66 161.167 1259.82 154.5 1277.66 154.5C1292.66 154.5 1304.49 159.5 1313.16 169.5C1321.82 179.333 1326.16 192.583 1326.16 209.25C1326.16 225.75 1320.41 240.083 1308.91 252.25C1297.57 264.25 1283.99 270.25 1268.16 270.25C1262.49 270.25 1257.24 269.5 1252.41 268C1247.74 266.667 1244.49 265.417 1242.66 264.25C1240.99 263.083 1238.74 261.417 1235.91 259.25C1236.07 262.083 1236.16 270.5 1236.16 284.5V305C1236.16 319.667 1237.91 327 1241.41 327H1253.66C1254.99 327 1255.66 328.25 1255.66 330.75C1255.66 333.25 1255.16 334.5 1254.16 334.5L1226.91 334.25L1197.91 335C1196.74 335 1196.16 333.75 1196.16 331.25C1196.16 328.75 1196.57 327.5 1197.41 327.5H1211.91C1213.91 327.5 1214.91 326.083 1214.91 323.25V197C1214.91 180.833 1212.57 172.75 1207.91 172.75H1202.91C1201.57 172.75 1200.91 171.5 1200.91 169C1200.91 166.5 1201.41 165.25 1202.41 165.25C1206.91 165.25 1211.32 163.833 1215.66 161C1220.16 158 1223.82 155 1226.66 152C1229.49 149 1231.24 147.5 1231.91 147.5C1234.24 147.5 1235.41 148.5 1235.41 150.5ZM1267.41 261.25C1278.74 261.25 1287.16 256.417 1292.66 246.75C1298.32 236.917 1301.16 225.833 1301.16 213.5C1301.16 201.167 1297.74 190.833 1290.91 182.5C1284.07 174 1274.82 169.75 1263.16 169.75C1255.16 169.75 1248.74 171.5 1243.91 175C1241.41 176.833 1239.57 178.333 1238.41 179.5C1237.24 180.5 1236.49 181.083 1236.16 181.25V226C1238.16 249.5 1248.57 261.25 1267.41 261.25ZM1373.19 266.75L1344.19 267.5C1343.03 267.5 1342.44 266.25 1342.44 263.75C1342.44 261.25 1342.86 260 1343.69 260H1358.19C1360.19 260 1361.19 258.583 1361.19 255.75V197C1361.19 180.833 1358.86 172.75 1354.19 172.75H1349.19C1347.86 172.75 1347.19 171.5 1347.19 169C1347.19 166.5 1347.69 165.25 1348.69 165.25C1356.36 165.25 1364.69 160.833 1373.69 152C1376.86 149 1378.86 147.5 1379.69 147.5C1382.19 147.5 1383.44 148.5 1383.44 150.5C1383.44 151.833 1383.28 156.333 1382.94 164C1382.61 171.5 1382.44 181.083 1382.44 192.75V237.5C1382.44 252.167 1384.19 259.5 1387.69 259.5H1399.94C1401.28 259.5 1401.94 260.75 1401.94 263.25C1401.94 265.75 1401.44 267 1400.44 267L1373.19 266.75ZM1382.19 107.5C1382.19 111.167 1380.94 114.333 1378.44 117C1375.94 119.5 1372.86 120.75 1369.19 120.75C1365.53 120.75 1362.28 119.5 1359.44 117C1356.78 114.5 1355.44 111.417 1355.44 107.75C1355.44 103.917 1356.69 100.667 1359.19 98C1361.86 95.3333 1365.03 94 1368.69 94C1372.53 94 1375.69 95.3333 1378.19 98C1380.86 100.5 1382.19 103.667 1382.19 107.5ZM1509.41 270.25C1509.41 271.417 1508.24 272 1505.91 272C1503.74 272 1502.66 271.5 1502.66 270.5C1502.66 269.667 1502.07 269 1500.91 268.5C1499.74 268.167 1496.16 267.833 1490.16 267.5C1480.16 267.167 1456.57 267 1419.41 267C1418.41 267 1417.91 266.25 1417.91 264.75C1417.91 263.25 1418.41 262.083 1419.41 261.25C1421.24 260.417 1427.32 252 1437.66 236C1448.16 220 1458.16 204.167 1467.66 188.5L1481.91 165.25H1446.41C1439.41 165.25 1433.66 171.75 1429.16 184.75C1428.82 185.583 1427.49 186 1425.16 186C1422.99 186 1421.91 185.583 1421.91 184.75C1422.91 176.75 1425.41 166.75 1429.41 154.75C1429.74 153.583 1431.07 153 1433.41 153C1435.91 153 1437.16 153.75 1437.16 155.25C1437.16 156.75 1437.49 157.583 1438.16 157.75H1509.16C1510.32 157.75 1510.91 158.667 1510.91 160.5C1510.91 162.167 1510.32 163.25 1509.16 163.75C1508.16 164.083 1503.07 171.417 1493.91 185.75C1484.74 200.083 1475.16 215.25 1465.16 231.25C1455.16 247.083 1448.99 256.417 1446.66 259.25H1489.41C1496.07 259.25 1500.82 256.167 1503.66 250C1504.99 246.667 1506.07 242.417 1506.91 237.25C1507.07 236.083 1508.32 235.5 1510.66 235.5C1513.16 235.5 1514.41 236.083 1514.41 237.25C1513.24 240.417 1512.07 245.833 1510.91 253.5C1509.91 261 1509.41 266.583 1509.41 270.25ZM1622.93 270.25C1622.93 271.417 1621.76 272 1619.43 272C1617.26 272 1616.18 271.5 1616.18 270.5C1616.18 269.667 1615.6 269 1614.43 268.5C1613.26 268.167 1609.68 267.833 1603.68 267.5C1593.68 267.167 1570.1 267 1532.93 267C1531.93 267 1531.43 266.25 1531.43 264.75C1531.43 263.25 1531.93 262.083 1532.93 261.25C1534.76 260.417 1540.85 252 1551.18 236C1561.68 220 1571.68 204.167 1581.18 188.5L1595.43 165.25H1559.93C1552.93 165.25 1547.18 171.75 1542.68 184.75C1542.35 185.583 1541.01 186 1538.68 186C1536.51 186 1535.43 185.583 1535.43 184.75C1536.43 176.75 1538.93 166.75 1542.93 154.75C1543.26 153.583 1544.6 153 1546.93 153C1549.43 153 1550.68 153.75 1550.68 155.25C1550.68 156.75 1551.01 157.583 1551.68 157.75H1622.68C1623.85 157.75 1624.43 158.667 1624.43 160.5C1624.43 162.167 1623.85 163.25 1622.68 163.75C1621.68 164.083 1616.6 171.417 1607.43 185.75C1598.26 200.083 1588.68 215.25 1578.68 231.25C1568.68 247.083 1562.51 256.417 1560.18 259.25H1602.93C1609.6 259.25 1614.35 256.167 1617.18 250C1618.51 246.667 1619.6 242.417 1620.43 237.25C1620.6 236.083 1621.85 235.5 1624.18 235.5C1626.68 235.5 1627.93 236.083 1627.93 237.25C1626.76 240.417 1625.6 245.833 1624.43 253.5C1623.43 261 1622.93 266.583 1622.93 270.25ZM1729.96 186C1729.96 186 1729.12 202.75 1727.46 236.25C1727.46 247.417 1731.12 253 1738.46 253C1741.46 253 1743.96 252.167 1745.96 250.5C1748.12 248.667 1749.37 247.75 1749.71 247.75C1751.37 247.75 1752.21 248.583 1752.21 250.25C1752.21 254.583 1749.71 258.917 1744.71 263.25C1739.87 267.583 1734.46 269.75 1728.46 269.75C1722.46 269.75 1717.87 267.333 1714.71 262.5C1711.71 257.5 1710.21 251.417 1710.21 244.25C1710.21 243.583 1710.21 242.833 1710.21 242H1709.46C1706.46 250.167 1701.37 256.917 1694.21 262.25C1687.04 267.583 1679.46 270.25 1671.46 270.25C1663.62 270.25 1657.62 268.667 1653.46 265.5C1649.46 262.167 1647.46 257.5 1647.46 251.5C1647.46 242 1652.87 233.083 1663.71 224.75C1674.54 216.417 1689.62 209.417 1708.96 203.75C1709.29 198.083 1709.46 194.75 1709.46 193.75C1709.46 184.75 1707.71 177.333 1704.21 171.5C1700.87 165.667 1695.79 162.75 1688.96 162.75C1682.12 162.75 1676.54 164.75 1672.21 168.75C1668.04 172.583 1665.96 178.167 1665.96 185.5C1665.96 187.833 1666.04 189.667 1666.21 191C1665.04 192.667 1662.79 193.5 1659.46 193.5C1656.12 193.5 1653.21 192.5 1650.71 190.5C1648.21 188.5 1646.96 185.583 1646.96 181.75C1646.96 174.25 1651.71 167.833 1661.21 162.5C1670.71 157.167 1680.71 154.5 1691.21 154.5C1717.04 154.5 1729.96 165 1729.96 186ZM1681.71 256.5C1688.54 256.5 1694.62 252.417 1699.96 244.25C1705.29 236.083 1708.29 225 1708.96 211C1694.79 216.167 1684.87 221.5 1679.21 227C1673.54 232.5 1670.71 238.417 1670.71 244.75C1670.71 252.583 1674.37 256.5 1681.71 256.5Z" fill="#222222"/>
</svg>
