<svg width="1255" height="745" viewBox="0 0 1255 745" fill="none" xmlns="http://www.w3.org/2000/svg">
<path d="M513.646 628.839C513.646 632.705 510.512 635.839 506.646 635.839H504.78C500.914 635.839 497.78 632.705 497.78 628.839C497.78 624.973 500.914 621.839 504.78 621.839H506.646C510.512 621.839 513.646 624.973 513.646 628.839ZM470.648 564.445H468.783C464.917 564.445 461.783 567.579 461.783 571.445C461.783 575.311 464.917 578.445 468.783 578.445H470.648C474.514 578.445 477.648 575.311 477.648 571.445C477.648 567.579 474.515 564.445 470.648 564.445ZM538.299 507.951H536.432C532.566 507.951 529.432 511.085 529.432 514.951C529.432 518.817 532.566 521.951 536.432 521.951H538.299C542.165 521.951 545.299 518.817 545.299 514.951C545.299 511.084 542.165 507.951 538.299 507.951ZM581.345 416.274H579.481C575.615 416.274 572.481 419.408 572.481 423.274C572.481 427.14 575.615 430.274 579.481 430.274H581.345C585.211 430.274 588.345 427.14 588.345 423.274C588.345 419.409 585.211 416.274 581.345 416.274ZM668.215 494.492C668.215 482.127 678.277 472.067 690.643 472.067C703.008 472.067 713.068 482.127 713.068 494.492C713.068 506.858 703.008 516.918 690.643 516.918C678.276 516.917 668.215 506.857 668.215 494.492ZM682.215 494.492C682.215 499.138 685.995 502.918 690.643 502.918C695.289 502.918 699.068 499.138 699.068 494.492C699.068 489.846 695.289 486.067 690.643 486.067C685.995 486.066 682.215 489.846 682.215 494.492ZM531.421 475.241C531.421 487.607 521.36 497.667 508.994 497.667C496.628 497.667 486.567 487.607 486.567 475.241C486.567 462.875 496.628 452.815 508.994 452.815C521.36 452.815 531.421 462.875 531.421 475.241ZM517.421 475.241C517.421 470.595 513.641 466.815 508.994 466.815C504.347 466.815 500.567 470.595 500.567 475.241C500.567 479.887 504.347 483.667 508.994 483.667C513.641 483.667 517.421 479.887 517.421 475.241ZM478.207 507.951H476.341C472.475 507.951 469.341 511.085 469.341 514.951C469.341 518.817 472.475 521.951 476.341 521.951H478.207C482.073 521.951 485.207 518.817 485.207 514.951C485.207 511.084 482.073 507.951 478.207 507.951ZM615.961 430.274H617.827C621.693 430.274 624.827 427.14 624.827 423.274C624.827 419.408 621.693 416.274 617.827 416.274H615.961C612.095 416.274 608.961 419.408 608.961 423.274C608.961 427.141 612.095 430.274 615.961 430.274ZM765.357 621.713C766.383 622.242 767.48 622.493 768.56 622.493C771.096 622.493 773.543 621.11 774.787 618.701L775.642 617.043C777.414 613.607 776.067 609.385 772.63 607.612C769.194 605.839 764.973 607.189 763.2 610.624L762.345 612.282C760.573 615.718 761.921 619.94 765.357 621.713ZM699.04 701.534C700.895 704.749 699.912 708.824 696.867 710.854C696.65 711.015 696.423 711.164 696.183 711.302C666.648 728.316 632.922 737.308 598.652 737.308C563.312 737.308 530.127 727.887 501.481 711.429C501.259 711.33 501.041 711.219 500.826 711.095C500.604 710.967 500.391 710.828 500.189 710.68C442.101 676.713 403 613.666 403 541.657C403 469.646 442.1 406.6 500.188 372.632C500.391 372.484 500.604 372.345 500.827 372.216C501.043 372.092 501.262 371.98 501.483 371.882C530.129 355.424 563.313 346.004 598.653 346.004C633.993 346.004 667.177 355.423 695.822 371.881C696.045 371.98 696.263 372.091 696.478 372.216C696.701 372.344 696.913 372.483 697.116 372.631C755.205 406.599 794.306 469.646 794.306 541.655V541.656C794.306 545.522 791.172 548.656 787.306 548.656H628.305C628.256 548.656 628.207 548.656 628.159 548.655H610.751L619.062 563.112C619.235 563.341 619.395 563.583 619.542 563.838L699.04 701.534ZM683.067 702.543L592.584 545.144C591.339 542.978 591.342 540.312 592.594 538.149C593.845 535.986 596.155 534.655 598.653 534.655H751.513C749.6 492.766 730.581 453.427 698.671 425.843C695.746 423.315 695.425 418.894 697.953 415.969C700.482 413.043 704.9 412.721 707.827 415.251C742.817 445.498 763.604 488.692 765.526 534.654H780.172C777.824 472.952 744.552 419.04 695.448 387.996L619.541 519.474C617.608 522.822 613.327 523.97 609.978 522.036C606.63 520.103 605.483 515.822 607.415 512.474L669.033 405.745C647.398 394.533 623.207 388.634 598.65 388.634C580.444 388.634 562.63 391.799 545.704 398.041C542.073 399.379 538.052 397.522 536.715 393.895C535.377 390.268 537.234 386.243 540.861 384.905C559.343 378.09 578.787 374.634 598.651 374.634C625.664 374.634 652.275 381.176 676.041 393.609L683.335 380.975C658.035 367.587 629.213 360.001 598.651 360.001C568.089 360.001 539.266 367.587 513.966 380.976L589.885 512.475C591.818 515.823 590.67 520.104 587.322 522.037C583.972 523.971 579.692 522.823 577.759 519.475L516.148 412.756C479.259 436.367 454.392 474.187 447.527 517.506C446.922 521.324 443.333 523.933 439.517 523.324C435.699 522.719 433.094 519.133 433.699 515.315C441.228 467.807 468.582 426.362 509.141 400.62L501.854 387.998C452.751 419.042 419.48 472.955 417.133 534.657H569.001C572.867 534.657 576.001 537.791 576.001 541.657C576.001 545.523 572.867 548.657 569.001 548.657H445.792C447.726 591.172 467.211 630.914 499.923 658.568C502.875 661.064 503.245 665.481 500.749 668.433C498.254 671.385 493.837 671.757 490.884 669.26C455.018 638.939 433.72 595.304 431.779 548.657H417.133C419.481 610.359 452.751 664.27 501.855 695.314L577.762 563.836C579.697 560.488 583.977 559.341 587.325 561.274C590.673 563.207 591.82 567.488 589.888 570.836L528.27 677.564C549.905 688.778 574.098 694.677 598.654 694.677C616.877 694.677 634.703 691.508 651.637 685.257C655.265 683.919 659.289 685.774 660.628 689.4C661.966 693.026 660.111 697.052 656.484 698.391C637.993 705.217 618.536 708.678 598.653 708.678C571.641 708.678 545.028 702.135 521.262 689.7L513.968 702.335C539.268 715.723 568.091 723.31 598.653 723.31C628.125 723.309 657.161 716.147 683.067 702.543ZM748.613 654.125C749.64 654.656 750.738 654.907 751.819 654.907C754.354 654.907 756.8 653.526 758.045 651.118L758.901 649.46C760.674 646.025 759.329 641.802 755.893 640.028C752.456 638.252 748.237 639.601 746.461 643.035L745.605 644.693C743.832 648.128 745.178 652.351 748.613 654.125ZM722.987 620.362C724.014 620.893 725.112 621.144 726.194 621.144C728.729 621.144 731.175 619.763 732.419 617.355L733.275 615.697C735.049 612.262 733.704 608.04 730.269 606.265C726.837 604.491 722.612 605.837 720.837 609.271L719.981 610.929C718.207 614.365 719.553 618.588 722.987 620.362ZM851.898 574.32C851.898 609.337 842.536 643.696 824.823 673.685C807.631 702.791 783.062 727.095 753.775 743.967C752.703 744.585 750.573 745.265 748.46 744.66C746.674 744.149 745.139 743 744.213 741.39L650.18 577.809C648.935 575.642 648.938 572.977 650.19 570.814C651.441 568.651 653.751 567.32 656.249 567.32H844.899C848.765 567.32 851.898 570.454 851.898 574.32ZM837.763 581.32H668.346L738.508 703.374C774.435 680.458 799.168 643.832 806.793 601.868C807.484 598.065 811.116 595.539 814.933 596.232C818.737 596.923 821.259 600.567 820.568 604.371C812.205 650.397 784.995 690.539 745.493 715.523L752.791 728.22C803.485 696.336 835.438 641.095 837.763 581.32ZM623.884 660.619H625.75C629.616 660.619 632.75 657.485 632.75 653.619C632.75 649.753 629.616 646.619 625.75 646.619H623.884C620.018 646.619 616.884 649.753 616.884 653.619C616.884 657.485 620.018 660.619 623.884 660.619ZM602.384 656.786C602.384 669.152 592.323 679.212 579.957 679.212C567.593 679.212 557.533 669.152 557.533 656.786C557.533 644.42 567.593 634.36 579.957 634.36C592.323 634.359 602.384 644.42 602.384 656.786ZM588.384 656.786C588.384 652.14 584.604 648.36 579.957 648.36C575.312 648.36 571.533 652.14 571.533 656.786C571.533 661.432 575.312 665.212 579.957 665.212C584.604 665.211 588.384 661.432 588.384 656.786ZM589.537 600.413C589.537 604.279 592.671 607.413 596.537 607.413H598.402C602.268 607.413 605.402 604.279 605.402 600.413C605.402 596.547 602.268 593.413 598.402 593.413H596.537C592.671 593.413 589.537 596.547 589.537 600.413ZM597.721 468.535H599.588C603.454 468.535 606.588 465.401 606.588 461.535C606.588 457.669 603.454 454.535 599.588 454.535H597.721C593.855 454.535 590.721 457.669 590.721 461.535C590.721 465.401 593.854 468.535 597.721 468.535ZM542.072 583.14C542.072 595.506 532.011 605.566 519.645 605.566C507.28 605.566 497.22 595.506 497.22 583.14C497.22 570.774 507.28 560.714 519.645 560.714C532.012 560.714 542.072 570.774 542.072 583.14ZM528.072 583.14C528.072 578.494 524.292 574.714 519.645 574.714C514.999 574.714 511.22 578.494 511.22 583.14C511.22 587.786 514.999 591.566 519.645 591.566C524.292 591.565 528.072 587.786 528.072 583.14Z" fill="#D1411E"/>
<path d="M14.75 75.75L47.5 76.25H76.25C97.5833 76.25 113.583 80.4167 124.25 88.75C134.917 96.9167 140.25 107 140.25 119C140.25 127.833 136.833 135.75 130 142.75C123.167 149.583 114.583 154 104.25 156V157C119.25 159.667 131.083 165 139.75 173C148.417 181 152.75 190.083 152.75 200.25C152.75 212.417 146.333 222.75 133.5 231.25C120.667 239.75 103.333 244 81.5 244H57.25L14.75 244.5C13.4167 244.5 12.75 243.083 12.75 240.25C12.75 237.417 13.4167 236 14.75 236H25.5C29.6667 236 32.4167 235.25 33.75 233.75C35.0833 232.083 35.75 229 35.75 224.5V106.25C35.75 91.5833 34 84.25 30.5 84.25H14.75C13.4167 84.25 12.75 82.8333 12.75 80C12.75 77.1667 13.4167 75.75 14.75 75.75ZM61.5 212C61.5 226.667 63.3333 234 67 234H79.75C93.5833 234 104.167 230.917 111.5 224.75C118.833 218.583 122.5 210.417 122.5 200.25C122.5 189.25 118.667 180.5 111 174C102.333 166.5 85.8333 162.25 61.5 161.25V212ZM61.5 97.75V151.25C65.5 151.917 69.9167 152.25 74.75 152.25C86.9167 152.25 96.3333 149.25 103 143.25C109.833 137.083 113.25 129.417 113.25 120.25C113.25 111.083 109.583 103.167 102.25 96.5C94.9167 89.6667 83.75 86.25 68.75 86.25C63.9167 86.25 61.5 90.0833 61.5 97.75ZM189.016 135L210.016 134.25C211.682 134.25 212.516 134.917 212.516 136.25C212.516 137.083 212.266 138.5 211.766 140.5C210.932 143.5 210.516 150.333 210.516 161V188.25C210.516 205.25 212.516 217.083 216.516 223.75C220.682 230.25 228.349 233.5 239.516 233.5C244.516 233.5 249.182 232.167 253.516 229.5C257.849 226.667 261.266 222.917 263.766 218.25V164.25C263.766 149.583 262.016 142.25 258.516 142.25H246.266C244.932 142.083 244.266 140.833 244.266 138.5C244.266 136 244.766 134.75 245.766 134.75L263.516 135L284.516 134.25C286.182 134.25 287.016 134.917 287.016 136.25C287.016 137.083 286.766 138.5 286.266 140.5C285.432 143.5 285.016 150.333 285.016 161V207.5C285.016 218.833 286.182 225.5 288.516 227.5C289.849 228.5 291.599 229 293.766 229L302.266 228.25C303.599 228.25 304.266 229.5 304.266 232C304.266 234.333 303.766 235.583 302.766 235.75C291.599 237.583 282.349 240.667 275.016 245C272.682 246.5 271.182 247.25 270.516 247.25C266.516 247.25 264.516 241.167 264.516 229H264.016C259.516 235 253.932 239.583 247.266 242.75C240.599 245.75 234.266 247.25 228.266 247.25C202.266 247.25 189.266 231.25 189.266 199.25V164.25C189.266 149.583 187.516 142.25 184.016 142.25H171.766C170.432 142.083 169.766 140.833 169.766 138.5C169.766 136 170.266 134.75 171.266 134.75L189.016 135ZM375.623 226C381.956 226 387.456 225.333 392.123 224C396.79 222.667 400.206 221.167 402.373 219.5L407.873 215C409.54 213.667 410.79 213 411.623 213C413.456 213 414.373 214 414.373 216C414.373 219.667 411.123 225.333 404.623 233C401.456 236.833 396.706 240.167 390.373 243C384.04 245.833 376.956 247.25 369.123 247.25C354.456 247.25 342.123 241.75 332.123 230.75C322.123 219.75 317.123 207.083 317.123 192.75C317.123 174.75 323.04 160.083 334.873 148.75C346.706 137.417 359.79 131.75 374.123 131.75C384.956 131.75 394.04 135.667 401.373 143.5C408.873 151.167 412.623 161.333 412.623 174C412.623 176.667 412.04 178.583 410.873 179.75C409.706 180.75 407.04 181.417 402.873 181.75C398.706 181.917 388.54 182.083 372.373 182.25C356.206 182.417 342.29 182.833 330.623 183.5C330.623 197.667 335.206 208.333 344.373 215.5C353.706 222.5 364.123 226 375.623 226ZM391.373 166.25C391.373 160.583 389.04 155.667 384.373 151.5C379.706 147.333 373.623 145.25 366.123 145.25C358.79 145.25 351.623 148 344.623 153.5C337.623 158.833 333.206 166.25 331.373 175.75C335.706 175.25 344.456 174.5 357.623 173.5C370.79 172.333 379.706 171.5 384.373 171C389.04 170.333 391.373 168.75 391.373 166.25ZM472.078 127.5L471.578 147H472.078C477.078 142.333 482.911 138.583 489.578 135.75C496.245 132.917 502.328 131.5 507.828 131.5C535.495 131.5 549.328 147.5 549.328 179.5V214.5C549.328 229.167 551.078 236.5 554.578 236.5H566.828C568.161 236.5 568.828 237.75 568.828 240.25C568.828 242.75 568.328 244 567.328 244C567.328 244 558.245 243.917 540.078 243.75L511.078 244.5C509.911 244.5 509.328 243.25 509.328 240.75C509.328 238.25 509.745 237 510.578 237H525.078C527.078 237 528.078 235.583 528.078 232.75V190.5C528.078 173.5 525.745 161.75 521.078 155.25C516.578 148.583 508.828 145.25 497.828 145.25C486.828 145.25 478.328 148.583 472.328 155.25V214.5C472.328 229.167 474.078 236.5 477.578 236.5H489.828C491.161 236.5 491.828 237.75 491.828 240.25C491.828 242.75 491.328 244 490.328 244L463.078 243.75L434.078 244.5C432.911 244.5 432.328 243.25 432.328 240.75C432.328 238.25 432.745 237 433.578 237H448.078C450.078 237 451.078 235.583 451.078 232.75V174C451.078 157.833 448.745 149.75 444.078 149.75H439.078C437.745 149.75 437.078 148.5 437.078 146C437.078 143.5 437.578 142.25 438.578 142.25C443.078 142.25 447.578 140.833 452.078 138C456.578 135 460.245 132 463.078 129C466.078 126 467.911 124.5 468.578 124.5C470.911 124.5 472.078 125.5 472.078 127.5ZM667.48 163C667.48 163 666.647 179.75 664.98 213.25C664.98 224.417 668.647 230 675.98 230C678.98 230 681.48 229.167 683.48 227.5C685.647 225.667 686.897 224.75 687.23 224.75C688.897 224.75 689.73 225.583 689.73 227.25C689.73 231.583 687.23 235.917 682.23 240.25C677.397 244.583 671.98 246.75 665.98 246.75C659.98 246.75 655.397 244.333 652.23 239.5C649.23 234.5 647.73 228.417 647.73 221.25C647.73 220.583 647.73 219.833 647.73 219H646.98C643.98 227.167 638.897 233.917 631.73 239.25C624.564 244.583 616.98 247.25 608.98 247.25C601.147 247.25 595.147 245.667 590.98 242.5C586.98 239.167 584.98 234.5 584.98 228.5C584.98 219 590.397 210.083 601.23 201.75C612.064 193.417 627.147 186.417 646.48 180.75C646.814 175.083 646.98 171.75 646.98 170.75C646.98 161.75 645.23 154.333 641.73 148.5C638.397 142.667 633.314 139.75 626.48 139.75C619.647 139.75 614.064 141.75 609.73 145.75C605.564 149.583 603.48 155.167 603.48 162.5C603.48 164.833 603.564 166.667 603.73 168C602.564 169.667 600.314 170.5 596.98 170.5C593.647 170.5 590.73 169.5 588.23 167.5C585.73 165.5 584.48 162.583 584.48 158.75C584.48 151.25 589.23 144.833 598.73 139.5C608.23 134.167 618.23 131.5 628.73 131.5C654.564 131.5 667.48 142 667.48 163ZM619.23 233.5C626.064 233.5 632.147 229.417 637.48 221.25C642.814 213.083 645.814 202 646.48 188C632.314 193.167 622.397 198.5 616.73 204C611.064 209.5 608.23 215.417 608.23 221.75C608.23 229.583 611.897 233.5 619.23 233.5ZM736.406 127.5L735.656 151.5H736.156C746.656 138.167 760.823 131.5 778.656 131.5C793.656 131.5 805.49 136.5 814.156 146.5C822.823 156.333 827.156 169.583 827.156 186.25C827.156 202.75 821.406 217.083 809.906 229.25C798.573 241.25 784.99 247.25 769.156 247.25C763.49 247.25 758.24 246.5 753.406 245C748.74 243.667 745.49 242.417 743.656 241.25C741.99 240.083 739.74 238.417 736.906 236.25C737.073 239.083 737.156 247.5 737.156 261.5V282C737.156 296.667 738.906 304 742.406 304H754.656C755.99 304 756.656 305.25 756.656 307.75C756.656 310.25 756.156 311.5 755.156 311.5L727.906 311.25L698.906 312C697.74 312 697.156 310.75 697.156 308.25C697.156 305.75 697.573 304.5 698.406 304.5H712.906C714.906 304.5 715.906 303.083 715.906 300.25V174C715.906 157.833 713.573 149.75 708.906 149.75H703.906C702.573 149.75 701.906 148.5 701.906 146C701.906 143.5 702.406 142.25 703.406 142.25C707.906 142.25 712.323 140.833 716.656 138C721.156 135 724.823 132 727.656 129C730.49 126 732.24 124.5 732.906 124.5C735.24 124.5 736.406 125.5 736.406 127.5ZM768.406 238.25C779.74 238.25 788.156 233.417 793.656 223.75C799.323 213.917 802.156 202.833 802.156 190.5C802.156 178.167 798.74 167.833 791.906 159.5C785.073 151 775.823 146.75 764.156 146.75C756.156 146.75 749.74 148.5 744.906 152C742.406 153.833 740.573 155.333 739.406 156.5C738.24 157.5 737.49 158.083 737.156 158.25V203C739.156 226.5 749.573 238.25 768.406 238.25ZM874.193 243.75L845.193 244.5C844.027 244.5 843.443 243.25 843.443 240.75C843.443 238.25 843.86 237 844.693 237H859.193C861.193 237 862.193 235.583 862.193 232.75V174C862.193 157.833 859.86 149.75 855.193 149.75H850.193C848.86 149.75 848.193 148.5 848.193 146C848.193 143.5 848.693 142.25 849.693 142.25C857.36 142.25 865.693 137.833 874.693 129C877.86 126 879.86 124.5 880.693 124.5C883.193 124.5 884.443 125.5 884.443 127.5C884.443 128.833 884.277 133.333 883.943 141C883.61 148.5 883.443 158.083 883.443 169.75V214.5C883.443 229.167 885.193 236.5 888.693 236.5H900.943C902.277 236.5 902.943 237.75 902.943 240.25C902.943 242.75 902.443 244 901.443 244L874.193 243.75ZM883.193 84.5C883.193 88.1667 881.943 91.3333 879.443 94C876.943 96.5 873.86 97.75 870.193 97.75C866.527 97.75 863.277 96.5 860.443 94C857.777 91.5 856.443 88.4167 856.443 84.75C856.443 80.9167 857.693 77.6667 860.193 75C862.86 72.3333 866.027 71 869.693 71C873.527 71 876.693 72.3333 879.193 75C881.86 77.5 883.193 80.6667 883.193 84.5ZM1010.41 247.25C1010.41 248.417 1009.24 249 1006.91 249C1004.74 249 1003.66 248.5 1003.66 247.5C1003.66 246.667 1003.07 246 1001.91 245.5C1000.74 245.167 997.156 244.833 991.156 244.5C981.156 244.167 957.573 244 920.406 244C919.406 244 918.906 243.25 918.906 241.75C918.906 240.25 919.406 239.083 920.406 238.25C922.24 237.417 928.323 229 938.656 213C949.156 197 959.156 181.167 968.656 165.5L982.906 142.25H947.406C940.406 142.25 934.656 148.75 930.156 161.75C929.823 162.583 928.49 163 926.156 163C923.99 163 922.906 162.583 922.906 161.75C923.906 153.75 926.406 143.75 930.406 131.75C930.74 130.583 932.073 130 934.406 130C936.906 130 938.156 130.75 938.156 132.25C938.156 133.75 938.49 134.583 939.156 134.75H1010.16C1011.32 134.75 1011.91 135.667 1011.91 137.5C1011.91 139.167 1011.32 140.25 1010.16 140.75C1009.16 141.083 1004.07 148.417 994.906 162.75C985.74 177.083 976.156 192.25 966.156 208.25C956.156 224.083 949.99 233.417 947.656 236.25H990.406C997.073 236.25 1001.82 233.167 1004.66 227C1005.99 223.667 1007.07 219.417 1007.91 214.25C1008.07 213.083 1009.32 212.5 1011.66 212.5C1014.16 212.5 1015.41 213.083 1015.41 214.25C1014.24 217.417 1013.07 222.833 1011.91 230.5C1010.91 238 1010.41 243.583 1010.41 247.25ZM1123.93 247.25C1123.93 248.417 1122.76 249 1120.43 249C1118.26 249 1117.18 248.5 1117.18 247.5C1117.18 246.667 1116.6 246 1115.43 245.5C1114.26 245.167 1110.68 244.833 1104.68 244.5C1094.68 244.167 1071.1 244 1033.93 244C1032.93 244 1032.43 243.25 1032.43 241.75C1032.43 240.25 1032.93 239.083 1033.93 238.25C1035.76 237.417 1041.85 229 1052.18 213C1062.68 197 1072.68 181.167 1082.18 165.5L1096.43 142.25H1060.93C1053.93 142.25 1048.18 148.75 1043.68 161.75C1043.35 162.583 1042.01 163 1039.68 163C1037.51 163 1036.43 162.583 1036.43 161.75C1037.43 153.75 1039.93 143.75 1043.93 131.75C1044.26 130.583 1045.6 130 1047.93 130C1050.43 130 1051.68 130.75 1051.68 132.25C1051.68 133.75 1052.01 134.583 1052.68 134.75H1123.68C1124.85 134.75 1125.43 135.667 1125.43 137.5C1125.43 139.167 1124.85 140.25 1123.68 140.75C1122.68 141.083 1117.6 148.417 1108.43 162.75C1099.26 177.083 1089.68 192.25 1079.68 208.25C1069.68 224.083 1063.51 233.417 1061.18 236.25H1103.93C1110.6 236.25 1115.35 233.167 1118.18 227C1119.51 223.667 1120.6 219.417 1121.43 214.25C1121.6 213.083 1122.85 212.5 1125.18 212.5C1127.68 212.5 1128.93 213.083 1128.93 214.25C1127.76 217.417 1126.6 222.833 1125.43 230.5C1124.43 238 1123.93 243.583 1123.93 247.25ZM1230.96 163C1230.96 163 1230.12 179.75 1228.46 213.25C1228.46 224.417 1232.12 230 1239.46 230C1242.46 230 1244.96 229.167 1246.96 227.5C1249.12 225.667 1250.37 224.75 1250.71 224.75C1252.37 224.75 1253.21 225.583 1253.21 227.25C1253.21 231.583 1250.71 235.917 1245.71 240.25C1240.87 244.583 1235.46 246.75 1229.46 246.75C1223.46 246.75 1218.87 244.333 1215.71 239.5C1212.71 234.5 1211.21 228.417 1211.21 221.25C1211.21 220.583 1211.21 219.833 1211.21 219H1210.46C1207.46 227.167 1202.37 233.917 1195.21 239.25C1188.04 244.583 1180.46 247.25 1172.46 247.25C1164.62 247.25 1158.62 245.667 1154.46 242.5C1150.46 239.167 1148.46 234.5 1148.46 228.5C1148.46 219 1153.87 210.083 1164.71 201.75C1175.54 193.417 1190.62 186.417 1209.96 180.75C1210.29 175.083 1210.46 171.75 1210.46 170.75C1210.46 161.75 1208.71 154.333 1205.21 148.5C1201.87 142.667 1196.79 139.75 1189.96 139.75C1183.12 139.75 1177.54 141.75 1173.21 145.75C1169.04 149.583 1166.96 155.167 1166.96 162.5C1166.96 164.833 1167.04 166.667 1167.21 168C1166.04 169.667 1163.79 170.5 1160.46 170.5C1157.12 170.5 1154.21 169.5 1151.71 167.5C1149.21 165.5 1147.96 162.583 1147.96 158.75C1147.96 151.25 1152.71 144.833 1162.21 139.5C1171.71 134.167 1181.71 131.5 1192.21 131.5C1218.04 131.5 1230.96 142 1230.96 163ZM1182.71 233.5C1189.54 233.5 1195.62 229.417 1200.96 221.25C1206.29 213.083 1209.29 202 1209.96 188C1195.79 193.167 1185.87 198.5 1180.21 204C1174.54 209.5 1171.71 215.417 1171.71 221.75C1171.71 229.583 1175.37 233.5 1182.71 233.5Z" fill="#D1411E"/>
</svg>
